<svg width="179" height="71" viewBox="0 0 179 71" fill="none" xmlns="http://www.w3.org/2000/svg">
<path d="M0 8.14111C0 3.72283 3.58172 0.141113 8 0.141113H170.779C175.198 0.141113 178.779 3.72284 178.779 8.14111V62.4231C178.779 66.8414 175.198 70.4231 170.779 70.4231H8C3.58172 70.4231 0 66.8414 0 62.4231V8.14111Z" fill="#FEFDF9"/>
<path d="M76.4669 38.503V28.8515C76.4669 27.4921 76.1256 26.4724 75.5117 25.7249C74.8973 25.045 73.8058 24.7052 72.3049 24.7052C69.9167 24.7052 68.0744 25.7929 66.5732 27.8999V38.503H65.0723V16.1411H66.5732V25.7249C67.2558 24.9773 68.0061 24.4334 68.8251 24.0937C69.9167 23.6179 71.0766 23.3458 72.3049 23.3458C74.2151 23.3458 75.648 23.8216 76.6033 24.8412C77.5585 25.8609 78.0362 27.1523 78.0362 28.8515V38.571H76.4669V38.503Z" fill="#191713"/>
<path d="M87.7934 38.9788C85.8145 38.9788 84.3136 38.4353 83.29 37.4156C82.2667 36.3959 81.7891 35.0365 81.7891 33.3373V23.7539H83.29V33.2696C83.29 34.6287 83.6313 35.7164 84.3816 36.464C85.0638 37.2115 86.2238 37.6193 87.7934 37.6193C88.9533 37.6193 89.9766 37.3476 90.8635 36.8718C91.7508 36.3959 92.5011 35.5123 93.2517 34.425V23.7539H94.753V38.5029H93.2517V36.6C91.8188 38.1632 89.9766 38.9788 87.7934 38.9788Z" fill="#191713"/>
<path d="M118.361 38.5031V28.7156C118.361 27.2881 118.088 26.2008 117.611 25.5889C117.133 24.9774 116.246 24.7053 114.881 24.7053C113.926 24.7053 113.039 24.9094 112.22 25.3172C111.47 25.725 110.719 26.4045 110.037 27.3562C110.105 27.764 110.105 28.2398 110.105 28.8517V38.5711H108.604V28.8517C108.604 27.832 108.468 27.0164 108.331 26.4045C108.127 25.861 107.785 25.4529 107.308 25.1811C106.83 24.9094 106.08 24.7733 105.125 24.7733C104.101 24.7733 103.214 25.0451 102.463 25.4529C101.713 25.9287 100.962 26.7443 100.143 27.9V38.5711H98.6426V23.7537H100.143V25.5889C100.757 24.8414 101.44 24.2975 102.122 23.9577C103.009 23.4819 104.033 23.2778 105.125 23.2778C106.489 23.2778 107.512 23.5499 108.263 24.0258C108.809 24.4336 109.287 24.9094 109.559 25.6569C110.788 24.0938 112.561 23.3459 114.813 23.3459C116.656 23.3459 117.883 23.8217 118.634 24.7053C119.385 25.5889 119.726 26.9484 119.726 28.7156V38.5711H118.361V38.5031Z" fill="#191713"/>
<path d="M131.734 38.9788C130.165 38.9788 128.732 38.639 127.504 37.9595C126.617 37.4836 125.866 36.8037 125.252 36.0562V38.571H123.751V16.1411H125.252V26.2007C125.798 25.4528 126.548 24.7732 127.435 24.2974C128.732 23.6179 130.165 23.2777 131.666 23.2777C133.099 23.2777 134.395 23.6179 135.555 24.2294C136.715 24.9093 137.67 25.7929 138.353 27.0163C139.035 28.1716 139.376 29.5991 139.376 31.0942C139.376 32.6578 139.035 34.0172 138.353 35.1726C137.67 36.3279 136.715 37.2796 135.555 37.8914C134.395 38.639 133.099 38.9788 131.734 38.9788ZM125.252 33.2016C125.662 34.5607 126.48 35.6484 127.572 36.3959C128.732 37.1435 130.097 37.5513 131.666 37.5513C132.826 37.5513 133.849 37.2796 134.804 36.7357C135.76 36.1922 136.51 35.4443 137.056 34.493C137.602 33.5414 137.875 32.3856 137.875 31.0942C137.875 29.8028 137.602 28.6475 137.056 27.6958C136.51 26.7442 135.76 25.9286 134.804 25.4528C133.849 24.9093 132.826 24.6372 131.666 24.6372C130.097 24.6372 128.732 25.045 127.572 25.8609C126.412 26.6085 125.662 27.6958 125.252 29.0553V33.2016Z" fill="#191713"/>
<path d="M144.357 16.1411H142.855V38.503H144.357V16.1411Z" fill="#191713"/>
<path d="M156.024 38.9787C153.432 38.9787 151.385 38.2992 149.952 36.9397C148.519 35.5803 147.769 33.6094 147.769 31.1622C147.769 28.7835 148.451 26.8802 149.747 25.4531C151.044 24.0256 152.954 23.3457 155.274 23.3457C156.911 23.3457 158.276 23.6858 159.368 24.2973C160.528 24.9092 161.346 25.7928 161.961 26.9482C162.506 28.0359 162.779 29.3273 162.779 30.7544V31.7741H149.201C149.27 33.6094 149.884 35.0365 150.975 35.9881C152.204 37.0078 153.841 37.5516 155.956 37.5516C156.843 37.5516 157.73 37.4836 158.549 37.2795C159.368 37.1438 160.186 36.9397 160.801 36.668L161.278 36.4639V37.8914L161.073 37.9594C160.528 38.2312 159.709 38.4352 158.754 38.5709C157.799 38.843 156.911 38.9787 156.024 38.9787ZM161.415 30.4147C161.346 28.7154 160.869 27.356 159.914 26.3367C158.89 25.249 157.389 24.7051 155.342 24.7051C153.295 24.7051 151.794 25.249 150.771 26.4044C149.815 27.492 149.338 28.8515 149.27 30.4147H161.415Z" fill="#191713"/>
<path d="M32.8529 39.5902C23.5734 39.5902 16.3408 34.4242 16.3408 27.8994H22.2772C22.2772 30.6179 26.6439 33.6766 32.8529 33.6766C39.0618 33.6766 43.4286 30.6179 43.4286 27.8994H49.3649C49.3649 34.4242 42.1323 39.5902 32.8529 39.5902Z" fill="#191713"/>
<path d="M22.2773 16.1411H16V51.6212H22.2773V36.6681V30.8905V16.1411Z" fill="#191713"/>
<path d="M43.4287 16.1411V30.8905V36.6681V51.5531H49.706V16.1411H43.4287Z" fill="#191713"/>
<path d="M32.8535 29.191C36.2828 29.191 39.0625 26.4218 39.0625 23.0056C39.0625 19.5899 36.2828 16.8203 32.8535 16.8203C29.4242 16.8203 26.6445 19.5899 26.6445 23.0056C26.6445 26.4218 29.4242 29.191 32.8535 29.191Z" fill="#FFBE1D"/>
<path d="M67.301 51.7711C66.911 51.7711 66.4907 51.7104 66.04 51.5891C65.598 51.4764 65.2557 51.3334 65.013 51.1601V50.5751C65.3337 50.7744 65.6933 50.9348 66.092 51.0561C66.4993 51.1688 66.898 51.2251 67.288 51.2251C68.432 51.2251 69.004 50.8611 69.004 50.1331C69.004 49.8818 68.952 49.6781 68.848 49.5221C68.744 49.3574 68.5577 49.2101 68.289 49.0801C68.0203 48.9501 67.626 48.8158 67.106 48.6771C66.5947 48.5384 66.1917 48.3998 65.897 48.2611C65.611 48.1138 65.39 47.9274 65.234 47.7021C65.078 47.4768 65 47.1821 65 46.8181C65 46.2721 65.2123 45.8561 65.637 45.5701C66.0703 45.2841 66.6467 45.1411 67.366 45.1411C68.1633 45.1411 68.809 45.2711 69.303 45.5311V46.1161C68.7917 45.8388 68.1547 45.7001 67.392 45.7001C66.8373 45.7001 66.4083 45.7911 66.105 45.9731C65.8103 46.1551 65.663 46.4368 65.663 46.8181C65.663 47.0781 65.715 47.2818 65.819 47.4291C65.923 47.5764 66.105 47.7064 66.365 47.8191C66.6337 47.9318 67.041 48.0618 67.587 48.2091C68.3497 48.4171 68.887 48.6641 69.199 48.9501C69.511 49.2361 69.667 49.6304 69.667 50.1331C69.667 50.6358 69.4677 51.0344 69.069 51.3291C68.679 51.6238 68.0897 51.7711 67.301 51.7711Z" fill="#191713"/>
<path d="M71.1598 45.3361H71.8488L73.5258 50.7701L75.1898 45.3361H75.9048L77.5688 50.7701L79.2458 45.3361H79.9478L77.9718 51.5761H77.2568L75.5538 46.0381L73.8508 51.5761H73.1228L71.1598 45.3361Z" fill="#191713"/>
<path d="M83.8765 51.7711C83.1312 51.7711 82.5375 51.5934 82.0955 51.2381C81.6622 50.8828 81.4455 50.3844 81.4455 49.7431C81.4455 49.0758 81.6578 48.5688 82.0825 48.2221C82.5072 47.8754 83.1182 47.7021 83.9155 47.7021C84.8948 47.7021 85.7182 47.9014 86.3855 48.3001V47.5331C86.3855 46.9091 86.2165 46.4498 85.8785 46.1551C85.5405 45.8518 84.9988 45.7001 84.2535 45.7001C83.5602 45.7001 82.8928 45.8344 82.2515 46.1031V45.5181C82.5115 45.4054 82.8278 45.3144 83.2005 45.2451C83.5732 45.1758 83.9372 45.1411 84.2925 45.1411C85.2372 45.1411 85.9348 45.3534 86.3855 45.7781C86.8448 46.2028 87.0745 46.8008 87.0745 47.5721V51.5761H86.4375V50.6791C85.8915 51.4071 85.0378 51.7711 83.8765 51.7711ZM84.0455 51.2121C84.5655 51.2121 85.0335 51.1081 85.4495 50.9001C85.8742 50.6834 86.1862 50.3888 86.3855 50.0161V48.8591C86.0042 48.6511 85.6315 48.4994 85.2675 48.4041C84.9035 48.3001 84.4875 48.2481 84.0195 48.2481C83.3435 48.2481 82.8538 48.3738 82.5505 48.6251C82.2558 48.8678 82.1085 49.2404 82.1085 49.7431C82.1085 50.2198 82.2688 50.5838 82.5895 50.8351C82.9102 51.0864 83.3955 51.2121 84.0455 51.2121Z" fill="#191713"/>
<path d="M89.6045 45.3361H90.2675V46.5841C90.8829 45.6221 91.8362 45.1411 93.1275 45.1411C93.7342 45.1411 94.2845 45.2798 94.7785 45.5571C95.2812 45.8258 95.6755 46.2114 95.9615 46.7141C96.2475 47.2168 96.3905 47.7974 96.3905 48.4561C96.3905 49.1148 96.2475 49.6954 95.9615 50.1981C95.6755 50.7008 95.2812 51.0908 94.7785 51.3681C94.2845 51.6368 93.7342 51.7711 93.1275 51.7711C92.5209 51.7711 91.9575 51.6498 91.4375 51.4071C90.9262 51.1644 90.5405 50.8048 90.2805 50.3281V54.4231H89.6045V45.3361ZM93.0235 51.2251C93.5262 51.2251 93.9812 51.1124 94.3885 50.8871C94.7959 50.6531 95.1165 50.3281 95.3505 49.9121C95.5932 49.4874 95.7145 49.0021 95.7145 48.4561C95.7145 47.9101 95.5932 47.4291 95.3505 47.0131C95.1165 46.5971 94.7959 46.2764 94.3885 46.0511C93.9812 45.8171 93.5262 45.7001 93.0235 45.7001C92.3649 45.7001 91.7885 45.8691 91.2945 46.2071C90.8092 46.5364 90.4712 47.0001 90.2805 47.5981V49.3011C90.4539 49.8904 90.7919 50.3584 91.2945 50.7051C91.7972 51.0518 92.3735 51.2251 93.0235 51.2251Z" fill="#191713"/>
</svg>
