<svg width="179" height="71" viewBox="0 0 179 71" fill="none" xmlns="http://www.w3.org/2000/svg">
<path d="M0 8C0 3.58172 3.58172 0 8 0H170.779C175.198 0 178.779 3.58172 178.779 8V62.282C178.779 66.7003 175.198 70.282 170.779 70.282H8C3.58172 70.282 0 66.7003 0 62.282V8Z" fill="#36332E"/>
<path d="M76.4669 38.3619V28.7104C76.4669 27.351 76.1256 26.3313 75.5117 25.5837C74.8973 24.9038 73.8058 24.5641 72.3049 24.5641C69.9167 24.5641 68.0744 25.6518 66.5732 27.7588V38.3619H65.0723V16H66.5732V25.5837C67.2558 24.8362 68.0061 24.2923 68.8251 23.9526C69.9167 23.4767 71.0766 23.2046 72.3049 23.2046C74.2151 23.2046 75.648 23.6805 76.6033 24.7001C77.5585 25.7198 78.0362 27.0112 78.0362 28.7104V38.4299H76.4669V38.3619Z" fill="white"/>
<path d="M87.7934 38.8377C85.8145 38.8377 84.3136 38.2942 83.29 37.2745C82.2667 36.2548 81.7891 34.8954 81.7891 33.1962V23.6128H83.29V33.1285C83.29 34.4876 83.6313 35.5753 84.3816 36.3229C85.0638 37.0704 86.2238 37.4782 87.7934 37.4782C88.9533 37.4782 89.9766 37.2065 90.8635 36.7307C91.7508 36.2548 92.5011 35.3712 93.2517 34.2839V23.6128H94.753V38.3618H93.2517V36.4589C91.8188 38.0221 89.9766 38.8377 87.7934 38.8377Z" fill="white"/>
<path d="M118.361 38.362V28.5745C118.361 27.147 118.088 26.0597 117.611 25.4478C117.133 24.8363 116.246 24.5642 114.881 24.5642C113.926 24.5642 113.039 24.7683 112.22 25.1761C111.47 25.5839 110.719 26.2634 110.037 27.215C110.105 27.6228 110.105 28.0987 110.105 28.7105V38.43H108.604V28.7105C108.604 27.6909 108.468 26.8753 108.331 26.2634C108.127 25.7199 107.785 25.3118 107.308 25.04C106.83 24.7683 106.08 24.6322 105.125 24.6322C104.101 24.6322 103.214 24.904 102.463 25.3118C101.713 25.7876 100.962 26.6032 100.143 27.7589V38.43H98.6426V23.6125H100.143V25.4478C100.757 24.7002 101.44 24.1564 102.122 23.8166C103.009 23.3408 104.033 23.1367 105.125 23.1367C106.489 23.1367 107.512 23.4088 108.263 23.8846C108.809 24.2924 109.287 24.7683 109.559 25.5158C110.788 23.9527 112.561 23.2047 114.813 23.2047C116.656 23.2047 117.883 23.6806 118.634 24.5642C119.385 25.4478 119.726 26.8073 119.726 28.5745V38.43H118.361V38.362Z" fill="white"/>
<path d="M131.734 38.8377C130.165 38.8377 128.732 38.4979 127.504 37.8184C126.617 37.3425 125.866 36.6626 125.252 35.9151V38.4299H123.751V16H125.252V26.0596C125.798 25.3116 126.548 24.6321 127.435 24.1563C128.732 23.4767 130.165 23.1366 131.666 23.1366C133.099 23.1366 134.395 23.4767 135.555 24.0883C136.715 24.7682 137.67 25.6518 138.353 26.8752C139.035 28.0305 139.376 29.458 139.376 30.9531C139.376 32.5166 139.035 33.8761 138.353 35.0314C137.67 36.1868 136.715 37.1385 135.555 37.7503C134.395 38.4979 133.099 38.8377 131.734 38.8377ZM125.252 33.0605C125.662 34.4196 126.48 35.5073 127.572 36.2548C128.732 37.0024 130.097 37.4102 131.666 37.4102C132.826 37.4102 133.849 37.1385 134.804 36.5946C135.76 36.0511 136.51 35.3032 137.056 34.3519C137.602 33.4003 137.875 32.2445 137.875 30.9531C137.875 29.6617 137.602 28.5063 137.056 27.5547C136.51 26.6031 135.76 25.7875 134.804 25.3116C133.849 24.7682 132.826 24.4961 131.666 24.4961C130.097 24.4961 128.732 24.9038 127.572 25.7198C126.412 26.4674 125.662 27.5547 125.252 28.9141V33.0605Z" fill="white"/>
<path d="M144.357 16H142.855V38.3618H144.357V16Z" fill="white"/>
<path d="M156.024 38.8376C153.432 38.8376 151.385 38.1581 149.952 36.7986C148.519 35.4392 147.769 33.4682 147.769 31.0211C147.769 28.6424 148.451 26.7391 149.747 25.312C151.044 23.8845 152.954 23.2046 155.274 23.2046C156.911 23.2046 158.276 23.5447 159.368 24.1562C160.528 24.7681 161.346 25.6517 161.961 26.8071C162.506 27.8948 162.779 29.1862 162.779 30.6133V31.633H149.201C149.27 33.4682 149.884 34.8953 150.975 35.847C152.204 36.8667 153.841 37.4105 155.956 37.4105C156.843 37.4105 157.73 37.3425 158.549 37.1384C159.368 37.0027 160.186 36.7986 160.801 36.5269L161.278 36.3228V37.7503L161.073 37.8183C160.528 38.09 159.709 38.2941 158.754 38.4298C157.799 38.7019 156.911 38.8376 156.024 38.8376ZM161.415 30.2735C161.346 28.5743 160.869 27.2149 159.914 26.1956C158.89 25.1079 157.389 24.564 155.342 24.564C153.295 24.564 151.794 25.1079 150.771 26.2632C149.815 27.3509 149.338 28.7104 149.27 30.2735H161.415Z" fill="white"/>
<path d="M32.8529 39.4496C23.5734 39.4496 16.3408 34.2835 16.3408 27.7588H22.2772C22.2772 30.4773 26.6439 33.536 32.8529 33.536C39.0618 33.536 43.4286 30.4773 43.4286 27.7588H49.3649C49.3649 34.2835 42.1323 39.4496 32.8529 39.4496Z" fill="white"/>
<path d="M22.2773 16H16V51.4801H22.2773V36.5269V30.7494V16Z" fill="white"/>
<path d="M43.4287 16V30.7494V36.5269V51.412H49.706V16H43.4287Z" fill="white"/>
<path d="M32.8535 29.0503C36.2828 29.0503 39.0625 26.2812 39.0625 22.865C39.0625 19.4492 36.2828 16.6797 32.8535 16.6797C29.4242 16.6797 26.6445 19.4492 26.6445 22.865C26.6445 26.2812 29.4242 29.0503 32.8535 29.0503Z" fill="#FFBE1D"/>
<path d="M67.301 51.63C66.911 51.63 66.4907 51.5693 66.04 51.448C65.598 51.3353 65.2557 51.1923 65.013 51.019V50.434C65.3337 50.6333 65.6933 50.7937 66.092 50.915C66.4993 51.0277 66.898 51.084 67.288 51.084C68.432 51.084 69.004 50.72 69.004 49.992C69.004 49.7407 68.952 49.537 68.848 49.381C68.744 49.2163 68.5577 49.069 68.289 48.939C68.0203 48.809 67.626 48.6747 67.106 48.536C66.5947 48.3973 66.1917 48.2587 65.897 48.12C65.611 47.9727 65.39 47.7863 65.234 47.561C65.078 47.3357 65 47.041 65 46.677C65 46.131 65.2123 45.715 65.637 45.429C66.0703 45.143 66.6467 45 67.366 45C68.1633 45 68.809 45.13 69.303 45.39V45.975C68.7917 45.6977 68.1547 45.559 67.392 45.559C66.8373 45.559 66.4083 45.65 66.105 45.832C65.8103 46.014 65.663 46.2957 65.663 46.677C65.663 46.937 65.715 47.1407 65.819 47.288C65.923 47.4353 66.105 47.5653 66.365 47.678C66.6337 47.7907 67.041 47.9207 67.587 48.068C68.3497 48.276 68.887 48.523 69.199 48.809C69.511 49.095 69.667 49.4893 69.667 49.992C69.667 50.4947 69.4677 50.8933 69.069 51.188C68.679 51.4827 68.0897 51.63 67.301 51.63Z" fill="white"/>
<path d="M71.1598 45.195H71.8488L73.5258 50.629L75.1898 45.195H75.9048L77.5688 50.629L79.2458 45.195H79.9478L77.9718 51.435H77.2568L75.5538 45.897L73.8508 51.435H73.1228L71.1598 45.195Z" fill="white"/>
<path d="M83.8765 51.63C83.1312 51.63 82.5375 51.4523 82.0955 51.097C81.6622 50.7417 81.4455 50.2433 81.4455 49.602C81.4455 48.9347 81.6578 48.4277 82.0825 48.081C82.5072 47.7343 83.1182 47.561 83.9155 47.561C84.8948 47.561 85.7182 47.7603 86.3855 48.159V47.392C86.3855 46.768 86.2165 46.3087 85.8785 46.014C85.5405 45.7107 84.9988 45.559 84.2535 45.559C83.5602 45.559 82.8928 45.6933 82.2515 45.962V45.377C82.5115 45.2643 82.8278 45.1733 83.2005 45.104C83.5732 45.0347 83.9372 45 84.2925 45C85.2372 45 85.9348 45.2123 86.3855 45.637C86.8448 46.0617 87.0745 46.6597 87.0745 47.431V51.435H86.4375V50.538C85.8915 51.266 85.0378 51.63 83.8765 51.63ZM84.0455 51.071C84.5655 51.071 85.0335 50.967 85.4495 50.759C85.8742 50.5423 86.1862 50.2477 86.3855 49.875V48.718C86.0042 48.51 85.6315 48.3583 85.2675 48.263C84.9035 48.159 84.4875 48.107 84.0195 48.107C83.3435 48.107 82.8538 48.2327 82.5505 48.484C82.2558 48.7267 82.1085 49.0993 82.1085 49.602C82.1085 50.0787 82.2688 50.4427 82.5895 50.694C82.9102 50.9453 83.3955 51.071 84.0455 51.071Z" fill="white"/>
<path d="M89.6045 45.195H90.2675V46.443C90.8829 45.481 91.8362 45 93.1275 45C93.7342 45 94.2845 45.1387 94.7785 45.416C95.2812 45.6847 95.6755 46.0703 95.9615 46.573C96.2475 47.0757 96.3905 47.6563 96.3905 48.315C96.3905 48.9737 96.2475 49.5543 95.9615 50.057C95.6755 50.5597 95.2812 50.9497 94.7785 51.227C94.2845 51.4957 93.7342 51.63 93.1275 51.63C92.5209 51.63 91.9575 51.5087 91.4375 51.266C90.9262 51.0233 90.5405 50.6637 90.2805 50.187V54.282H89.6045V45.195ZM93.0235 51.084C93.5262 51.084 93.9812 50.9713 94.3885 50.746C94.7959 50.512 95.1165 50.187 95.3505 49.771C95.5932 49.3463 95.7145 48.861 95.7145 48.315C95.7145 47.769 95.5932 47.288 95.3505 46.872C95.1165 46.456 94.7959 46.1353 94.3885 45.91C93.9812 45.676 93.5262 45.559 93.0235 45.559C92.3649 45.559 91.7885 45.728 91.2945 46.066C90.8092 46.3953 90.4712 46.859 90.2805 47.457V49.16C90.4539 49.7493 90.7919 50.2173 91.2945 50.564C91.7972 50.9107 92.3735 51.084 93.0235 51.084Z" fill="white"/>
</svg>
